<svg width="197" height="47" viewBox="0 0 197 47" fill="none" xmlns="http://www.w3.org/2000/svg">
<path d="M104.672 25.304C104.672 23.912 104.952 22.696 105.512 21.656C106.088 20.616 106.88 19.816 107.888 19.256C108.912 18.696 110.08 18.416 111.392 18.416C113.072 18.416 114.472 18.856 115.592 19.736C116.728 20.616 117.472 21.856 117.824 23.456H113.456C113.088 22.432 112.376 21.92 111.32 21.92C110.568 21.92 109.968 22.216 109.52 22.808C109.072 23.384 108.848 24.216 108.848 25.304C108.848 26.392 109.072 27.232 109.52 27.824C109.968 28.4 110.568 28.688 111.32 28.688C112.376 28.688 113.088 28.176 113.456 27.152H117.824C117.472 28.72 116.728 29.952 115.592 30.848C114.456 31.744 113.056 32.192 111.392 32.192C110.08 32.192 108.912 31.912 107.888 31.352C106.88 30.792 106.088 29.992 105.512 28.952C104.952 27.912 104.672 26.696 104.672 25.304ZM124.123 14.24V32H120.019V14.24H124.123ZM126.281 25.28C126.281 23.904 126.537 22.696 127.049 21.656C127.577 20.616 128.289 19.816 129.185 19.256C130.081 18.696 131.081 18.416 132.185 18.416C133.129 18.416 133.953 18.608 134.657 18.992C135.377 19.376 135.929 19.88 136.313 20.504V18.608H140.417V32H136.313V30.104C135.913 30.728 135.353 31.232 134.633 31.616C133.929 32 133.105 32.192 132.161 32.192C131.073 32.192 130.081 31.912 129.185 31.352C128.289 30.776 127.577 29.968 127.049 28.928C126.537 27.872 126.281 26.656 126.281 25.28ZM136.313 25.304C136.313 24.28 136.025 23.472 135.449 22.88C134.889 22.288 134.201 21.992 133.385 21.992C132.569 21.992 131.873 22.288 131.297 22.88C130.737 23.456 130.457 24.256 130.457 25.28C130.457 26.304 130.737 27.12 131.297 27.728C131.873 28.32 132.569 28.616 133.385 28.616C134.201 28.616 134.889 28.32 135.449 27.728C136.025 27.136 136.313 26.328 136.313 25.304ZM148.834 32.192C147.666 32.192 146.626 31.992 145.714 31.592C144.802 31.192 144.082 30.648 143.554 29.96C143.026 29.256 142.73 28.472 142.666 27.608H146.722C146.77 28.072 146.986 28.448 147.37 28.736C147.754 29.024 148.226 29.168 148.786 29.168C149.298 29.168 149.69 29.072 149.962 28.88C150.25 28.672 150.394 28.408 150.394 28.088C150.394 27.704 150.194 27.424 149.794 27.248C149.394 27.056 148.746 26.848 147.85 26.624C146.89 26.4 146.09 26.168 145.45 25.928C144.81 25.672 144.258 25.28 143.794 24.752C143.33 24.208 143.098 23.48 143.098 22.568C143.098 21.8 143.306 21.104 143.722 20.48C144.154 19.84 144.778 19.336 145.594 18.968C146.426 18.6 147.41 18.416 148.546 18.416C150.226 18.416 151.546 18.832 152.506 19.664C153.482 20.496 154.042 21.6 154.186 22.976H150.394C150.33 22.512 150.122 22.144 149.77 21.872C149.434 21.6 148.986 21.464 148.426 21.464C147.946 21.464 147.578 21.56 147.322 21.752C147.066 21.928 146.938 22.176 146.938 22.496C146.938 22.88 147.138 23.168 147.538 23.36C147.954 23.552 148.594 23.744 149.458 23.936C150.45 24.192 151.258 24.448 151.882 24.704C152.506 24.944 153.05 25.344 153.514 25.904C153.994 26.448 154.242 27.184 154.258 28.112C154.258 28.896 154.034 29.6 153.586 30.224C153.154 30.832 152.522 31.312 151.69 31.664C150.874 32.016 149.922 32.192 148.834 32.192ZM162.217 32.192C161.049 32.192 160.009 31.992 159.097 31.592C158.185 31.192 157.465 30.648 156.937 29.96C156.409 29.256 156.113 28.472 156.049 27.608H160.105C160.153 28.072 160.369 28.448 160.753 28.736C161.137 29.024 161.609 29.168 162.169 29.168C162.681 29.168 163.073 29.072 163.345 28.88C163.633 28.672 163.777 28.408 163.777 28.088C163.777 27.704 163.577 27.424 163.177 27.248C162.777 27.056 162.129 26.848 161.233 26.624C160.273 26.4 159.473 26.168 158.833 25.928C158.193 25.672 157.641 25.28 157.177 24.752C156.713 24.208 156.481 23.48 156.481 22.568C156.481 21.8 156.689 21.104 157.105 20.48C157.537 19.84 158.161 19.336 158.977 18.968C159.809 18.6 160.793 18.416 161.929 18.416C163.609 18.416 164.929 18.832 165.889 19.664C166.865 20.496 167.425 21.6 167.569 22.976H163.777C163.713 22.512 163.505 22.144 163.153 21.872C162.817 21.6 162.369 21.464 161.809 21.464C161.329 21.464 160.961 21.56 160.705 21.752C160.449 21.928 160.321 22.176 160.321 22.496C160.321 22.88 160.521 23.168 160.921 23.36C161.337 23.552 161.977 23.744 162.841 23.936C163.833 24.192 164.641 24.448 165.265 24.704C165.889 24.944 166.433 25.344 166.897 25.904C167.377 26.448 167.625 27.184 167.641 28.112C167.641 28.896 167.417 29.6 166.969 30.224C166.537 30.832 165.905 31.312 165.073 31.664C164.257 32.016 163.305 32.192 162.217 32.192ZM182.776 25.088C182.776 25.472 182.752 25.872 182.704 26.288H173.416C173.48 27.12 173.744 27.76 174.208 28.208C174.688 28.64 175.272 28.856 175.96 28.856C176.984 28.856 177.696 28.424 178.096 27.56H182.464C182.24 28.44 181.832 29.232 181.24 29.936C180.664 30.64 179.936 31.192 179.056 31.592C178.176 31.992 177.192 32.192 176.104 32.192C174.792 32.192 173.624 31.912 172.6 31.352C171.576 30.792 170.776 29.992 170.2 28.952C169.624 27.912 169.336 26.696 169.336 25.304C169.336 23.912 169.616 22.696 170.176 21.656C170.752 20.616 171.552 19.816 172.576 19.256C173.6 18.696 174.776 18.416 176.104 18.416C177.4 18.416 178.552 18.688 179.56 19.232C180.568 19.776 181.352 20.552 181.912 21.56C182.488 22.568 182.776 23.744 182.776 25.088ZM178.576 24.008C178.576 23.304 178.336 22.744 177.856 22.328C177.376 21.912 176.776 21.704 176.056 21.704C175.368 21.704 174.784 21.904 174.304 22.304C173.84 22.704 173.552 23.272 173.44 24.008H178.576ZM190.389 32.192C189.221 32.192 188.181 31.992 187.269 31.592C186.357 31.192 185.637 30.648 185.109 29.96C184.581 29.256 184.285 28.472 184.221 27.608H188.277C188.325 28.072 188.541 28.448 188.925 28.736C189.309 29.024 189.781 29.168 190.341 29.168C190.853 29.168 191.245 29.072 191.517 28.88C191.805 28.672 191.949 28.408 191.949 28.088C191.949 27.704 191.749 27.424 191.349 27.248C190.949 27.056 190.301 26.848 189.405 26.624C188.445 26.4 187.645 26.168 187.005 25.928C186.365 25.672 185.813 25.28 185.349 24.752C184.885 24.208 184.653 23.48 184.653 22.568C184.653 21.8 184.861 21.104 185.277 20.48C185.709 19.84 186.333 19.336 187.149 18.968C187.981 18.6 188.965 18.416 190.101 18.416C191.781 18.416 193.101 18.832 194.061 19.664C195.037 20.496 195.597 21.6 195.741 22.976H191.949C191.885 22.512 191.677 22.144 191.325 21.872C190.989 21.6 190.541 21.464 189.981 21.464C189.501 21.464 189.133 21.56 188.877 21.752C188.621 21.928 188.493 22.176 188.493 22.496C188.493 22.88 188.693 23.168 189.093 23.36C189.509 23.552 190.149 23.744 191.013 23.936C192.005 24.192 192.813 24.448 193.437 24.704C194.061 24.944 194.605 25.344 195.069 25.904C195.549 26.448 195.797 27.184 195.813 28.112C195.813 28.896 195.589 29.6 195.141 30.224C194.709 30.832 194.077 31.312 193.245 31.664C192.429 32.016 191.477 32.192 190.389 32.192Z" fill="white"/>
<rect x="53" width="45" height="35" rx="10" fill="#59C16F"/>
<path d="M77.232 44C76.4622 45.3333 74.5377 45.3333 73.7679 44L63.8087 26.75C63.0388 25.4167 64.0011 23.75 65.5407 23.75L85.4593 23.75C86.9989 23.75 87.9611 25.4167 87.1913 26.75L77.232 44Z" fill="#59C16F"/>
<path d="M83 15.268C84.3333 16.0378 84.3333 17.9623 83 18.7321L74 23.9282C72.6667 24.698 71 23.7358 71 22.1962V11.8039C71 10.2642 72.6667 9.302 74 10.0718L83 15.268Z" fill="white"/>
<path d="M0.672 25.28C0.672 23.904 0.928 22.696 1.44 21.656C1.968 20.616 2.68 19.816 3.576 19.256C4.472 18.696 5.472 18.416 6.576 18.416C7.456 18.416 8.256 18.6 8.976 18.968C9.712 19.336 10.288 19.832 10.704 20.456V14.24H14.808V32H10.704V30.08C10.32 30.72 9.768 31.232 9.048 31.616C8.344 32 7.52 32.192 6.576 32.192C5.472 32.192 4.472 31.912 3.576 31.352C2.68 30.776 1.968 29.968 1.44 28.928C0.928 27.872 0.672 26.656 0.672 25.28ZM10.704 25.304C10.704 24.28 10.416 23.472 9.84 22.88C9.28 22.288 8.592 21.992 7.776 21.992C6.96 21.992 6.264 22.288 5.688 22.88C5.128 23.456 4.848 24.256 4.848 25.28C4.848 26.304 5.128 27.12 5.688 27.728C6.264 28.32 6.96 28.616 7.776 28.616C8.592 28.616 9.28 28.32 9.84 27.728C10.416 27.136 10.704 26.328 10.704 25.304ZM30.4011 25.088C30.4011 25.472 30.3771 25.872 30.3291 26.288H21.0411C21.1051 27.12 21.3691 27.76 21.8331 28.208C22.3131 28.64 22.8971 28.856 23.5851 28.856C24.6091 28.856 25.3211 28.424 25.7211 27.56H30.0891C29.8651 28.44 29.4571 29.232 28.8651 29.936C28.2891 30.64 27.5611 31.192 26.6811 31.592C25.8011 31.992 24.8171 32.192 23.7291 32.192C22.4171 32.192 21.2491 31.912 20.2251 31.352C19.2011 30.792 18.4011 29.992 17.8251 28.952C17.2491 27.912 16.9611 26.696 16.9611 25.304C16.9611 23.912 17.2411 22.696 17.8011 21.656C18.3771 20.616 19.1771 19.816 20.2011 19.256C21.2251 18.696 22.4011 18.416 23.7291 18.416C25.0251 18.416 26.1771 18.688 27.1851 19.232C28.1931 19.776 28.9771 20.552 29.5371 21.56C30.1131 22.568 30.4011 23.744 30.4011 25.088ZM26.2011 24.008C26.2011 23.304 25.9611 22.744 25.4811 22.328C25.0011 21.912 24.4011 21.704 23.6811 21.704C22.9931 21.704 22.4091 21.904 21.9291 22.304C21.4651 22.704 21.1771 23.272 21.0651 24.008H26.2011ZM38.5901 28.16L41.4941 18.608H45.8621L41.1101 32H36.0461L31.2941 18.608H35.6861L38.5901 28.16Z" fill="white"/>
</svg>
